<mxfile host="app.diagrams.net" agent="Mozilla/5.0 (Windows NT 10.0; Win64; x64; rv:135.0) Gecko/20100101 Firefox/135.0" version="26.0.16">
  <diagram name="PÃ¡gina-1" id="ANMc4SyVvMun6bVpUktd">
    <mxGraphModel>
      <root>
        <mxCell id="0" />
        <mxCell id="1" parent="0" />
        <mxCell id="2" value="Other Package Managers" style="whiteSpace=wrap;strokeWidth=2;" vertex="1" parent="1">
          <mxGeometry x="8" y="517" width="1140" height="384" as="geometry" />
        </mxCell>
        <mxCell id="3" value="Arch Linux" style="whiteSpace=wrap;strokeWidth=2;" vertex="1" parent="1">
          <mxGeometry x="1168" y="517" width="557" height="384" as="geometry" />
        </mxCell>
        <mxCell id="4" value="Red Hat/CentOS" style="whiteSpace=wrap;strokeWidth=2;" vertex="1" parent="1">
          <mxGeometry x="1745" y="517" width="520" height="384" as="geometry" />
        </mxCell>
        <mxCell id="5" value="Debian/Ubuntu" style="whiteSpace=wrap;strokeWidth=2;" vertex="1" parent="1">
          <mxGeometry x="2286" y="517" width="490" height="384" as="geometry" />
        </mxCell>
        <mxCell id="6" value="Package Management" style="whiteSpace=wrap;strokeWidth=2;" vertex="1" parent="1">
          <mxGeometry x="167" y="8" width="2393" height="459" as="geometry" />
        </mxCell>
        <mxCell id="7" value="Package Management" style="rhombus;strokeWidth=2;whiteSpace=wrap;" vertex="1" parent="1">
          <mxGeometry x="1048" y="33" width="207" height="207" as="geometry" />
        </mxCell>
        <mxCell id="8" value="Choose Distro" style="rhombus;strokeWidth=2;whiteSpace=wrap;" vertex="1" parent="1">
          <mxGeometry x="1075" y="290" width="152" height="152" as="geometry" />
        </mxCell>
        <mxCell id="9" value="APT" style="rhombus;strokeWidth=2;whiteSpace=wrap;" vertex="1" parent="1">
          <mxGeometry x="2499" y="566" width="82" height="82" as="geometry" />
        </mxCell>
        <mxCell id="10" value="apt-get" style="rhombus;strokeWidth=2;whiteSpace=wrap;" vertex="1" parent="1">
          <mxGeometry x="2321" y="746" width="107" height="107" as="geometry" />
        </mxCell>
        <mxCell id="11" value="apt-cache" style="rhombus;strokeWidth=2;whiteSpace=wrap;" vertex="1" parent="1">
          <mxGeometry x="2477" y="737" width="125" height="125" as="geometry" />
        </mxCell>
        <mxCell id="12" value="dpkg" style="rhombus;strokeWidth=2;whiteSpace=wrap;" vertex="1" parent="1">
          <mxGeometry x="2652" y="756" width="88" height="88" as="geometry" />
        </mxCell>
        <mxCell id="13" value="YUM" style="rhombus;strokeWidth=2;whiteSpace=wrap;" vertex="1" parent="1">
          <mxGeometry x="1988" y="565" width="85" height="85" as="geometry" />
        </mxCell>
        <mxCell id="14" value="yum install" style="rhombus;strokeWidth=2;whiteSpace=wrap;" vertex="1" parent="1">
          <mxGeometry x="1780" y="733" width="133" height="133" as="geometry" />
        </mxCell>
        <mxCell id="15" value="yum search" style="rhombus;strokeWidth=2;whiteSpace=wrap;" vertex="1" parent="1">
          <mxGeometry x="1963" y="732" width="135" height="135" as="geometry" />
        </mxCell>
        <mxCell id="16" value="rpm" style="rhombus;strokeWidth=2;whiteSpace=wrap;" vertex="1" parent="1">
          <mxGeometry x="2148" y="758" width="82" height="82" as="geometry" />
        </mxCell>
        <mxCell id="17" value="Pacman" style="rhombus;strokeWidth=2;whiteSpace=wrap;" vertex="1" parent="1">
          <mxGeometry x="1394" y="553" width="109" height="109" as="geometry" />
        </mxCell>
        <mxCell id="18" value="pacman -S" style="rhombus;strokeWidth=2;whiteSpace=wrap;" vertex="1" parent="1">
          <mxGeometry x="1203" y="735" width="128" height="128" as="geometry" />
        </mxCell>
        <mxCell id="19" value="pacman -Ss" style="rhombus;strokeWidth=2;whiteSpace=wrap;" vertex="1" parent="1">
          <mxGeometry x="1381" y="732" width="135" height="135" as="geometry" />
        </mxCell>
        <mxCell id="20" value="PKGBUILD" style="rhombus;strokeWidth=2;whiteSpace=wrap;" vertex="1" parent="1">
          <mxGeometry x="1565" y="737" width="125" height="125" as="geometry" />
        </mxCell>
        <mxCell id="21" value="Homebrew" style="rhombus;strokeWidth=2;whiteSpace=wrap;" vertex="1" parent="1">
          <mxGeometry x="158" y="542" width="131" height="131" as="geometry" />
        </mxCell>
        <mxCell id="22" value="brew install" style="rhombus;strokeWidth=2;whiteSpace=wrap;" vertex="1" parent="1">
          <mxGeometry x="43" y="730" width="139" height="139" as="geometry" />
        </mxCell>
        <mxCell id="23" value="brew search" style="rhombus;strokeWidth=2;whiteSpace=wrap;" vertex="1" parent="1">
          <mxGeometry x="232" y="729" width="141" height="141" as="geometry" />
        </mxCell>
        <mxCell id="24" value="Snap" style="rhombus;strokeWidth=2;whiteSpace=wrap;" vertex="1" parent="1">
          <mxGeometry x="552" y="563" width="88" height="88" as="geometry" />
        </mxCell>
        <mxCell id="25" value="snap install" style="rhombus;strokeWidth=2;whiteSpace=wrap;" vertex="1" parent="1">
          <mxGeometry x="423" y="732" width="135" height="135" as="geometry" />
        </mxCell>
        <mxCell id="26" value="snap find" style="rhombus;strokeWidth=2;whiteSpace=wrap;" vertex="1" parent="1">
          <mxGeometry x="608" y="740" width="120" height="120" as="geometry" />
        </mxCell>
        <mxCell id="27" value="Flatpak" style="rhombus;strokeWidth=2;whiteSpace=wrap;" vertex="1" parent="1">
          <mxGeometry x="914" y="554" width="107" height="107" as="geometry" />
        </mxCell>
        <mxCell id="28" value="flatpak install" style="rhombus;strokeWidth=2;whiteSpace=wrap;" vertex="1" parent="1">
          <mxGeometry x="778" y="723" width="154" height="154" as="geometry" />
        </mxCell>
        <mxCell id="29" value="flatpak list" style="rhombus;strokeWidth=2;whiteSpace=wrap;" vertex="1" parent="1">
          <mxGeometry x="981" y="734" width="132" height="132" as="geometry" />
        </mxCell>
        <mxCell id="30" value="" style="curved=1;startArrow=none;endArrow=block;exitX=0.5;exitY=1;entryX=0.5;entryY=0;" edge="1" parent="1" source="7" target="8">
          <mxGeometry relative="1" as="geometry">
            <Array as="points" />
          </mxGeometry>
        </mxCell>
        <mxCell id="31" value="" style="curved=1;startArrow=none;endArrow=block;exitX=1;exitY=0.54;entryX=0.5;entryY=0.01;" edge="1" parent="1" source="8" target="9">
          <mxGeometry relative="1" as="geometry">
            <Array as="points">
              <mxPoint x="2540" y="467" />
            </Array>
          </mxGeometry>
        </mxCell>
        <mxCell id="32" value="" style="curved=1;startArrow=none;endArrow=block;exitX=0;exitY=0.77;entryX=0.49;entryY=0;" edge="1" parent="1" source="9" target="10">
          <mxGeometry relative="1" as="geometry">
            <Array as="points">
              <mxPoint x="2374" y="698" />
            </Array>
          </mxGeometry>
        </mxCell>
        <mxCell id="33" value="" style="curved=1;startArrow=none;endArrow=block;exitX=0.5;exitY=1;entryX=0.5;entryY=0;" edge="1" parent="1" source="9" target="11">
          <mxGeometry relative="1" as="geometry">
            <Array as="points" />
          </mxGeometry>
        </mxCell>
        <mxCell id="34" value="" style="curved=1;startArrow=none;endArrow=block;exitX=1;exitY=0.79;entryX=0.5;entryY=-0.01;" edge="1" parent="1" source="9" target="12">
          <mxGeometry relative="1" as="geometry">
            <Array as="points">
              <mxPoint x="2696" y="698" />
            </Array>
          </mxGeometry>
        </mxCell>
        <mxCell id="35" value="" style="curved=1;startArrow=none;endArrow=block;exitX=1;exitY=0.56;entryX=0.5;entryY=0;" edge="1" parent="1" source="8" target="13">
          <mxGeometry relative="1" as="geometry">
            <Array as="points">
              <mxPoint x="2030" y="467" />
            </Array>
          </mxGeometry>
        </mxCell>
        <mxCell id="36" value="" style="curved=1;startArrow=none;endArrow=block;exitX=0;exitY=0.74;entryX=0.5;entryY=0;" edge="1" parent="1" source="13" target="14">
          <mxGeometry relative="1" as="geometry">
            <Array as="points">
              <mxPoint x="1847" y="698" />
            </Array>
          </mxGeometry>
        </mxCell>
        <mxCell id="37" value="" style="curved=1;startArrow=none;endArrow=block;exitX=0.5;exitY=1;entryX=0.5;entryY=0;" edge="1" parent="1" source="13" target="15">
          <mxGeometry relative="1" as="geometry">
            <Array as="points" />
          </mxGeometry>
        </mxCell>
        <mxCell id="38" value="" style="curved=1;startArrow=none;endArrow=block;exitX=1;exitY=0.78;entryX=0.5;entryY=0;" edge="1" parent="1" source="13" target="16">
          <mxGeometry relative="1" as="geometry">
            <Array as="points">
              <mxPoint x="2189" y="698" />
            </Array>
          </mxGeometry>
        </mxCell>
        <mxCell id="39" value="" style="curved=1;startArrow=none;endArrow=block;exitX=1;exitY=0.67;entryX=0.5;entryY=0;" edge="1" parent="1" source="8" target="17">
          <mxGeometry relative="1" as="geometry">
            <Array as="points">
              <mxPoint x="1448" y="467" />
            </Array>
          </mxGeometry>
        </mxCell>
        <mxCell id="40" value="" style="curved=1;startArrow=none;endArrow=block;exitX=0;exitY=0.75;entryX=0.5;entryY=0;" edge="1" parent="1" source="17" target="18">
          <mxGeometry relative="1" as="geometry">
            <Array as="points">
              <mxPoint x="1267" y="698" />
            </Array>
          </mxGeometry>
        </mxCell>
        <mxCell id="41" value="" style="curved=1;startArrow=none;endArrow=block;exitX=0.5;exitY=1;entryX=0.5;entryY=0;" edge="1" parent="1" source="17" target="19">
          <mxGeometry relative="1" as="geometry">
            <Array as="points" />
          </mxGeometry>
        </mxCell>
        <mxCell id="42" value="" style="curved=1;startArrow=none;endArrow=block;exitX=1;exitY=0.75;entryX=0.5;entryY=0;" edge="1" parent="1" source="17" target="20">
          <mxGeometry relative="1" as="geometry">
            <Array as="points">
              <mxPoint x="1628" y="698" />
            </Array>
          </mxGeometry>
        </mxCell>
        <mxCell id="43" value="" style="curved=1;startArrow=none;endArrow=block;exitX=0;exitY=0.55;entryX=0.5;entryY=0;" edge="1" parent="1" source="8" target="21">
          <mxGeometry relative="1" as="geometry">
            <Array as="points">
              <mxPoint x="224" y="467" />
            </Array>
          </mxGeometry>
        </mxCell>
        <mxCell id="44" value="" style="curved=1;startArrow=none;endArrow=block;exitX=0;exitY=0.9;entryX=0.5;entryY=0;" edge="1" parent="1" source="21" target="22">
          <mxGeometry relative="1" as="geometry">
            <Array as="points">
              <mxPoint x="112" y="698" />
            </Array>
          </mxGeometry>
        </mxCell>
        <mxCell id="45" value="" style="curved=1;startArrow=none;endArrow=block;exitX=0.93;exitY=1;entryX=0.5;entryY=0;" edge="1" parent="1" source="21" target="23">
          <mxGeometry relative="1" as="geometry">
            <Array as="points">
              <mxPoint x="302" y="698" />
            </Array>
          </mxGeometry>
        </mxCell>
        <mxCell id="46" value="" style="curved=1;startArrow=none;endArrow=block;exitX=0;exitY=0.59;entryX=0.5;entryY=0;" edge="1" parent="1" source="8" target="24">
          <mxGeometry relative="1" as="geometry">
            <Array as="points">
              <mxPoint x="596" y="467" />
            </Array>
          </mxGeometry>
        </mxCell>
        <mxCell id="47" value="" style="curved=1;startArrow=none;endArrow=block;exitX=0;exitY=0.93;entryX=0.5;entryY=0;" edge="1" parent="1" source="24" target="25">
          <mxGeometry relative="1" as="geometry">
            <Array as="points">
              <mxPoint x="490" y="698" />
            </Array>
          </mxGeometry>
        </mxCell>
        <mxCell id="48" value="" style="curved=1;startArrow=none;endArrow=block;exitX=0.89;exitY=1;entryX=0.5;entryY=0;" edge="1" parent="1" source="24" target="26">
          <mxGeometry relative="1" as="geometry">
            <Array as="points">
              <mxPoint x="668" y="698" />
            </Array>
          </mxGeometry>
        </mxCell>
        <mxCell id="49" value="" style="curved=1;startArrow=none;endArrow=block;exitX=0;exitY=0.77;entryX=0.5;entryY=0;" edge="1" parent="1" source="8" target="27">
          <mxGeometry relative="1" as="geometry">
            <Array as="points">
              <mxPoint x="967" y="467" />
            </Array>
          </mxGeometry>
        </mxCell>
        <mxCell id="50" value="" style="curved=1;startArrow=none;endArrow=block;exitX=0;exitY=0.9;entryX=0.5;entryY=0;" edge="1" parent="1" source="27" target="28">
          <mxGeometry relative="1" as="geometry">
            <Array as="points">
              <mxPoint x="854" y="698" />
            </Array>
          </mxGeometry>
        </mxCell>
        <mxCell id="51" value="" style="curved=1;startArrow=none;endArrow=block;exitX=0.94;exitY=1;entryX=0.5;entryY=0;" edge="1" parent="1" source="27" target="29">
          <mxGeometry relative="1" as="geometry">
            <Array as="points">
              <mxPoint x="1047" y="698" />
            </Array>
          </mxGeometry>
        </mxCell>
      </root>
    </mxGraphModel>
  </diagram>
</mxfile>
